<svg xmlns="http://www.w3.org/2000/svg" viewBox="0 0 64 64" role="img" aria-label="PonyFlux Pay">
  <defs>
    <linearGradient id="pgd" x1="0" y1="0" x2="64" y2="64" gradientUnits="userSpaceOnUse">
      <stop offset="0%"   stop-color="#818CF8"/>
      <stop offset="60%"  stop-color="#A78BFA"/>
      <stop offset="100%" stop-color="#C084FC"/>
    </linearGradient>
    <linearGradient id="pgd-m" x1="8" y1="4" x2="36" y2="36" gradientUnits="userSpaceOnUse">
      <stop offset="0%"   stop-color="#A5B4FC"/>
      <stop offset="100%" stop-color="#C4B5FD"/>
    </linearGradient>
  </defs>
  <g transform="translate(4, 6)">
    <path d="M38 4 L46 16 L30 14 Z" fill="url(#pgd)"/>
    <path d="M22 16 Q30 8 42 16 L38 4 L30 14 Z" fill="url(#pgd)" opacity="0.9"/>
    <path d="M14 28 L22 16 L42 16 L48 24 L46 32 L38 36 L26 36 L18 30 Z" fill="url(#pgd)"/>
    <path d="M18 30 L26 36 L38 36 L32 42 L22 42 Z" fill="#7C3AED" opacity="0.9"/>
    <circle cx="40" cy="24" r="2.2" fill="white" opacity="0.95"/>
    <path d="M22 16 Q16 20 14 28 L18 30 Q20 22 28 16 Z" fill="url(#pgd-m)"/>
    <path d="M18 14 Q12 18 10 24 L14 28 Q16 20 22 16 Z" fill="url(#pgd-m)" opacity="0.7"/>
    <path d="M14 28 L10 24 L8 32 L14 40 L18 30 Z" fill="url(#pgd)" opacity="0.8"/>
  </g>
  <text x="58" y="28" font-family="'Inter','DM Sans','Segoe UI',system-ui,sans-serif" font-weight="700" font-size="9.5" fill="#F1F5F9" text-anchor="end" letter-spacing="0.3">PonyFlux</text>
  <text x="58" y="40" font-family="'Inter','DM Sans','Segoe UI',system-ui,sans-serif" font-weight="600" font-size="6" fill="#94A3B8" text-anchor="end" letter-spacing="1.2">PAY</text>
</svg>
