<svg xmlns="http://www.w3.org/2000/svg" viewBox="0 0 16 16" role="img">
  <defs>
    <linearGradient id="pg-16" x1="0" y1="0" x2="16" y2="16" gradientUnits="userSpaceOnUse">
      <stop offset="0%"   stop-color="#6366F1"/>
      <stop offset="100%" stop-color="#8B5CF6"/>
    </linearGradient>
  </defs>
  <path d="M9.5 1 L11.5 4 L7.5 3.5 Z" fill="url(#pg-16)"/>
  <path d="M5.5 4 Q8 2 10.5 4 L9.5 1 L7.5 3.5 Z" fill="url(#pg-16)" opacity="0.85"/>
  <path d="M3.5 7 L5.5 4 L10.5 4 L12 6 L11.5 8 L9.5 9 L6.5 9 L4.5 7.5 Z" fill="url(#pg-16)"/>
  <path d="M4.5 7.5 L6.5 9 L9.5 9 L8 10.5 L5.5 10.5 Z" fill="#4F46E5" opacity="0.9"/>
  <circle cx="10.5" cy="6" r="0.6" fill="white" opacity="0.95"/>
  <path d="M5.5 4 Q4 5 3.5 7 L4.5 7.5 Q5 5 7 4 Z" fill="#818CF8"/>
</svg>
