<svg xmlns="http://www.w3.org/2000/svg" viewBox="0 0 64 64" fill="none" role="img" aria-label="小马支付">
  <defs>
    <linearGradient id="pfd-body" x1="12" y1="8" x2="52" y2="52" gradientUnits="userSpaceOnUse">
      <stop stop-color="#2dd4bf"/>
      <stop offset="0.4" stop-color="#0d9488"/>
      <stop offset="1" stop-color="#065f46"/>
    </linearGradient>
    <linearGradient id="pfd-mane" x1="10" y1="14" x2="28" y2="32" gradientUnits="userSpaceOnUse">
      <stop stop-color="#115e59"/>
      <stop offset="1" stop-color="#042f2e"/>
    </linearGradient>
    <linearGradient id="pfd-accent" x1="28" y1="44" x2="54" y2="56" gradientUnits="userSpaceOnUse">
      <stop stop-color="#fcd34d"/>
      <stop offset="1" stop-color="#b45309"/>
    </linearGradient>
  </defs>
  <rect width="64" height="64" rx="14" fill="rgba(255,255,255,0.06)"/>
  <rect x="1.5" y="1.5" width="61" height="61" rx="13.5" stroke="rgba(255,255,255,0.16)" stroke-width="1"/>
  <g transform="translate(5,6)">
    <path d="M36 4l5 10-11-2 2.5-7.2" fill="url(#pfd-body)" stroke="rgba(6,78,59,0.5)" stroke-width="0.35" stroke-linejoin="round"/>
    <path d="M22 16q7-7 19 0l-4-12-9.5 1.8z" fill="url(#pfd-body)" opacity="0.96"/>
    <path d="M15 29l7-13 20 0 5.5 7.5-1.5 7.5-8 4H26z" fill="url(#pfd-body)" stroke="rgba(2,26,24,0.45)" stroke-width="0.35" stroke-linejoin="round"/>
    <path d="M18 30l8.5 6h10l-5.5 5.5H24z" fill="url(#pfd-mane)" stroke="rgba(0,0,0,0.22)" stroke-width="0.25"/>
    <circle cx="40.5" cy="23.5" r="2" fill="#f0fdfa" opacity="0.95"/>
    <path d="M22 16q-6.5 4-8.5 11l4 3q2.2-7.5 10-14z" fill="url(#pfd-mane)"/>
    <path d="M15 29l-4.5-2.5-2 6 5.5 6.5 3-6z" fill="url(#pfd-body)" opacity="0.88"/>
    <path d="M31 46c5 0 10-1.2 14-3.5" stroke="url(#pfd-accent)" stroke-width="1.6" stroke-linecap="round" opacity="0.9"/>
  </g>
</svg>
